<?xml version="1.0" encoding="utf-8"?>
<!-- Generator: Adobe Illustrator 21.0.0, SVG Export Plug-In . SVG Version: 6.00 Build 0)  -->
<svg version="1.1" id="Livello_1" xmlns="http://www.w3.org/2000/svg" xmlns:xlink="http://www.w3.org/1999/xlink" x="0px" y="0px"
	 viewBox="0 0 772 250" style="enable-background:new 0 0 772 250;" xml:space="preserve">
<style type="text/css">
	.st0{fill:#D9D9D9;}
	.st1{fill:none;}
	.st2{fill:#006B81;}
	.st3{fill:#3EBCA6;}
	.st4{fill:#FFFFFF;}
</style>
<rect class="st0" width="772" height="250"/>
<g>
	<g>
		<path class="st1" d="M724.3,45h-28.3l-37.2,135.9h49.4l28.3,28.3V57.1c0-3.3-1.1-6-3.7-8.5C730.3,46.2,727.7,45,724.3,45z"/>
		<path class="st1" d="M724.3,45h-28.3l-37.2,135.9h49.4l28.3,28.3V57.1c0-3.3-1.1-6-3.7-8.5C730.3,46.2,727.7,45,724.3,45z"/>
		<path class="st2" d="M741.5,40.1c-4.8-4.8-10.5-7.2-17.1-7.2h-25l5.9-21.5h-12.7l-55.8,203.6h12.7l6-21.8h47.6l45.5,45.5V57.1
			C748.7,50.6,746.3,44.8,741.5,40.1z"/>
		<path class="st3" d="M736.5,209.2l-28.3-28.3h-49.4L696.1,45h28.3c3.3,0,6,1.1,8.5,3.7c2.4,2.4,3.7,5.2,3.7,8.5L736.5,209.2
			L736.5,209.2z"/>
	</g>
	<g>
		<path class="st1" d="M567.3,60.6c-2.4,2.4-3.7,5.2-3.7,8.5v111.2c0,3.4,1.2,6.2,3.8,8.8c2.4,2.5,5.2,3.8,8.4,3.8h26.8L639.9,57
			h-64C572.5,56.9,569.8,58,567.3,60.6z"/>
		<path class="st1" d="M639.9,56.9h-64c-3.3,0-6,1.1-8.5,3.7s-3.7,5.2-3.7,8.5v111.2c0,3.4,1.2,6.2,3.8,8.8c2.4,2.5,5.2,3.8,8.4,3.8
			h26.8L639.9,56.9z"/>
		<path class="st2" d="M661.7,23.2h-12.7l-5.9,21.5h-67.3c-6.6,0-12.3,2.4-17.1,7.2s-7.2,10.5-7.2,17.1v111.2
			c0,6.6,2.4,12.3,7.1,17.3c4.8,5,10.6,7.5,17.2,7.5h23.5l-6,21.8H606L661.7,23.2z"/>
		<path class="st3" d="M575.8,192.8c-3.3,0-5.9-1.2-8.4-3.8c-2.5-2.6-3.8-5.4-3.8-8.8V69c0-3.3,1.1-6,3.7-8.5
			c2.5-2.5,5.2-3.7,8.5-3.7h64l-37.2,136H575.8z"/>
	</g>
</g>
<g>
	<path d="M62.9,40.5c5.4,0,8.1,2.7,8.1,8.1v21.5c0,5.4-2.7,8.1-8.1,8.1H46.8V40.5H62.9z M68.3,48.6c0-3.6-1.8-5.4-5.4-5.4H49.5v32.2
		h13.4c3.6,0,5.4-1.8,5.4-5.4V48.6z"/>
	<path d="M79.1,40.5v5.4h-2.7v-5.4H79.1z M79.1,51.3v26.9h-2.7V51.3H79.1z"/>
	<path d="M84.4,78.1v-2.7h12.1c3.6,0,5.4-1.4,5.4-4.3v-1.1c0-2.9-1.8-4.3-5.4-4.3h-4c-5.4,0-8.1-2.1-8.1-6.4v-1.1c0-4.7,2.7-7,8.1-7
		h12.1V54H92.5c-3.6,0-5.4,1.4-5.4,4.3v1.1c0,2.5,1.8,3.8,5.4,3.8h4c5.4,0,8.1,2.3,8.1,7v1.1c0,4.7-2.7,7-8.1,7H84.4z"/>
	<path d="M128.7,62c0-5.4-2.7-8.1-8.1-8.1h-8.1v-2.7h8.1c7.2,0,10.7,3.6,10.7,10.7v16.1h-1.9l-0.8-2.7c-1.8,1.8-4.5,2.7-8.1,2.7H118
		c-5.4,0-8.1-2.7-8.1-8.1s2.7-8.1,8.1-8.1h2.7c3.6,0,6.3,0.9,8.1,2.7V62z M120.7,75.4c3.6,0,6.3-0.9,8.1-2.7v-5.4
		c-1.8-1.8-4.5-2.7-8.1-2.7H118c-3.6,0-5.4,1.8-5.4,5.4c0,3.6,1.8,5.4,5.4,5.4H120.7z"/>
	<path d="M139.5,40.5V54c1.8-1.8,4.5-2.7,8.1-2.7h2.7c5.4,0,8.1,2.7,8.1,8.1v10.7c0,5.4-2.7,8.1-8.1,8.1h-2.7
		c-3.6,0-6.3-0.9-8.1-2.7l-0.8,2.7h-1.9V40.5H139.5z M147.5,54c-3.6,0-6.3,0.9-8.1,2.7v16.1c1.8,1.8,4.5,2.7,8.1,2.7h2.7
		c3.6,0,5.4-1.8,5.4-5.4V59.3c0-3.6-1.8-5.4-5.4-5.4H147.5z"/>
	<path d="M166.3,40.5v37.6h-2.7V40.5H166.3z"/>
	<path d="M174.4,66v4c0,3.6,1.8,5.4,5.4,5.4h12.1v2.7h-12.1c-5.4,0-8.1-2.7-8.1-8.1V59.3c0-5.4,2.7-8.1,8.1-8.1h5.4
		c5.4,0,8.1,2.7,8.1,8.1V66H174.4z M174.4,63.4h16.1v-4c0-3.6-1.8-5.4-5.4-5.4h-5.4c-3.6,0-5.4,1.8-5.4,5.4V63.4z"/>
	<path d="M233.5,78.1h-2.7l-3.3-10.7h-14.9l-3.3,10.7h-2.7l11.3-37.6h4.3L233.5,78.1z M213.4,64.7h13.2L220,43.2L213.4,64.7z"/>
	<path d="M238,51.3l0.8,2.7c1.8-1.8,4.5-2.7,8.1-2.7h2.7c5.4,0,8.1,2.7,8.1,8.1v18.8H255V59.3c0-3.6-1.8-5.4-5.4-5.4h-2.7
		c-3.6,0-6.3,0.9-8.1,2.7v21.5h-2.7V51.3H238z"/>
	<path d="M265.7,88.9v-2.7h10.7c3.6,0,5.4-1.8,5.4-5.4v-5.4c-1.8,1.8-4.5,2.7-8.1,2.7h-2.7c-5.4,0-8.1-2.7-8.1-8.1V51.3h2.7v18.8
		c0,3.6,1.8,5.4,5.4,5.4h2.7c3.6,0,6.3-0.9,8.1-2.7V51.3h2.7v29.5c0,5.4-2.7,8.1-8.1,8.1H265.7z"/>
	<path d="M303.3,70.1c0,3.6,1.8,5.4,5.4,5.4h13.4v2.7h-13.4c-5.4,0-8.1-2.7-8.1-8.1V48.6c0-5.4,2.7-8.1,8.1-8.1h13.4v2.7h-13.4
		c-3.6,0-5.4,1.8-5.4,5.4V70.1z"/>
	<path d="M348.9,70.1c0,5.4-2.7,8.1-8.1,8.1h-5.4c-5.4,0-8.1-2.7-8.1-8.1V59.3c0-5.4,2.7-8.1,8.1-8.1h5.4c5.4,0,8.1,2.7,8.1,8.1
		V70.1z M330.1,70.1c0,3.6,1.8,5.4,5.4,5.4h5.4c3.6,0,5.4-1.8,5.4-5.4V59.3c0-3.6-1.8-5.4-5.4-5.4h-5.4c-3.6,0-5.4,1.8-5.4,5.4V70.1
		z"/>
	<path d="M356.2,51.3L357,54c1.8-1.8,4.5-2.7,8.1-2.7c3.1,0,5.3,0.9,6.6,2.7c2.3-1.8,5-2.7,8.2-2.7c6.3,0,9.4,2.7,9.4,8.1v18.8h-2.7
		V59.3c0-3.6-2-5.4-5.9-5.4c-4,0-6.5,0.9-7.5,2.7v21.5h-2.7V59.1c-0.1-3.4-1.9-5.1-5.4-5.1c-3.6,0-6.3,0.9-8.1,2.7v21.5h-2.7V51.3
		H356.2z"/>
	<path d="M396.5,51.3l0.8,2.7c1.8-1.8,4.5-2.7,8.1-2.7c3.1,0,5.3,0.9,6.6,2.7c2.3-1.8,5-2.7,8.2-2.7c6.3,0,9.4,2.7,9.4,8.1v18.8
		h-2.7V59.3c0-3.6-2-5.4-5.9-5.4s-6.5,0.9-7.5,2.7v21.5h-2.7V59.1c-0.1-3.4-1.9-5.1-5.4-5.1c-3.6,0-6.3,0.9-8.1,2.7v21.5h-2.7V51.3
		H396.5z"/>
	<path d="M437.6,66v4c0,3.6,1.8,5.4,5.4,5.4H455v2.7h-12.1c-5.4,0-8.1-2.7-8.1-8.1V59.3c0-5.4,2.7-8.1,8.1-8.1h5.4
		c5.4,0,8.1,2.7,8.1,8.1V66H437.6z M437.6,63.4h16.1v-4c0-3.6-1.8-5.4-5.4-5.4h-5.4c-3.6,0-5.4,1.8-5.4,5.4V63.4z"/>
	<path d="M463.6,51.3l0.8,2.7c1.8-1.8,4.5-2.7,8.1-2.7h2.7c5.4,0,8.1,2.7,8.1,8.1v18.8h-2.7V59.3c0-3.6-1.8-5.4-5.4-5.4h-2.7
		c-3.6,0-6.3,0.9-8.1,2.7v21.5h-2.7V51.3H463.6z"/>
	<path d="M495.3,51.3h9.4V54h-9.4v16.1c0,3.6,1.8,5.4,5.4,5.4h4v2.7h-4c-5.4,0-8.1-2.7-8.1-8.1V54h-4v-2.7h4v-8.1l2.7-2.7V51.3z"/>
</g>
<path d="M301.4,82.3l5.8,9.9v-9.9h0.8v11.6h-0.8l-5.8-9.9v9.9h-0.8V82.3H301.4z"/>
<path d="M317.6,91.4c0,1.7-0.8,2.5-2.5,2.5h-2.9c-1.7,0-2.5-0.8-2.5-2.5v-6.6c0-1.7,0.8-2.5,2.5-2.5h2.9c1.7,0,2.5,0.8,2.5,2.5V91.4
	z M310.5,91.4c0,1.1,0.6,1.7,1.7,1.7h2.9c1.1,0,1.7-0.6,1.7-1.7v-6.6c0-1.1-0.6-1.7-1.7-1.7h-2.9c-1.1,0-1.7,0.6-1.7,1.7V91.4z"/>
<path d="M326.7,82.3v0.8h-3.3v10.8h-0.8V83.1h-3.3v-0.8H326.7z"/>
<path d="M339.1,93.9h-0.8l-1-3.3h-4.6l-1,3.3h-0.8l3.5-11.6h1.3L339.1,93.9z M332.9,89.8h4.1l-2-6.6L332.9,89.8z"/>
<path d="M344.1,91.4c0,1.1,0.6,1.7,1.7,1.7h4.1v0.8h-4.1c-1.7,0-2.5-0.8-2.5-2.5v-6.6c0-1.7,0.8-2.5,2.5-2.5h4.1v0.8h-4.1
	c-1.1,0-1.7,0.6-1.7,1.7V91.4z"/>
<path d="M359.4,91.4c0,1.7-0.8,2.5-2.5,2.5H354c-1.7,0-2.5-0.8-2.5-2.5v-6.6c0-1.7,0.8-2.5,2.5-2.5h2.9c1.7,0,2.5,0.8,2.5,2.5V91.4z
	 M352.3,91.4c0,1.1,0.6,1.7,1.7,1.7h2.9c1.1,0,1.7-0.6,1.7-1.7v-6.6c0-1.1-0.6-1.7-1.7-1.7H354c-1.1,0-1.7,0.6-1.7,1.7V91.4z"/>
<path d="M361,82.3h1.4l3.6,10.8l3.6-10.8h1.4v11.6h-0.8V83.1l-3.5,10.8h-1.3l-3.5-10.8v10.8H361V82.3z"/>
<path d="M372.6,82.3h1.4l3.6,10.8l3.6-10.8h1.4v11.6h-0.8V83.1l-3.5,10.8h-1.3l-3.5-10.8v10.8h-0.8V82.3z"/>
<path d="M390.8,87.7v0.8H385v4.6h5.8v0.8h-6.6V82.3h6.6v0.8H385v4.6H390.8z"/>
<path d="M393.3,82.3l5.8,9.9v-9.9h0.8v11.6h-0.8l-5.8-9.9v9.9h-0.8V82.3H393.3z"/>
<path d="M409,82.3v0.8h-3.3v10.8h-0.8V83.1h-3.3v-0.8H409z"/>
<path d="M422.9,93.9h-1.3l-2.2-9.8l-2.2,9.8h-1.3l-2.6-11.6h0.8l2.5,10.8l2.5-10.8h0.8l2.5,10.8l2.5-10.8h0.8L422.9,93.9z"/>
<path d="M427.2,82.3v11.6h-0.8V82.3H427.2z"/>
<path d="M429.7,93.1h5.8v0.8h-6.6V82.3h0.8V93.1z"/>
<path d="M438,93.1h5.8v0.8h-6.6V82.3h0.8V93.1z"/>
<path d="M448.7,93.9v-0.8h5c1.1,0,1.7-0.6,1.7-1.7v-1.2c0-1.1-0.6-1.7-1.7-1.7h-2.5c-1.7,0-2.5-0.8-2.5-2.5v-1.2
	c0-1.7,0.8-2.5,2.5-2.5h5v0.8h-5c-1.1,0-1.7,0.6-1.7,1.7V86c0,1.1,0.6,1.7,1.7,1.7h2.5c1.7,0,2.5,0.8,2.5,2.5v1.2
	c0,1.7-0.8,2.5-2.5,2.5H448.7z"/>
<path d="M458.7,82.3v9.1c0,1.1,0.6,1.7,1.7,1.7h2.5c1.1,0,1.7-0.6,1.7-1.7v-9.1h0.8v9.1c0,1.7-0.8,2.5-2.5,2.5h-2.5
	c-1.7,0-2.5-0.8-2.5-2.5v-9.1H458.7z"/>
<path d="M471.6,88.5h-3.9v5.4h-0.8V82.3h5c1.7,0,2.5,0.8,2.5,2.5V86c0,1.5-0.6,2.3-1.9,2.4l1.9,5.4h-0.8L471.6,88.5z M467.8,83.1
	v4.6h4.1c1.1,0,1.7-0.6,1.7-1.7v-1.2c0-1.1-0.6-1.7-1.7-1.7H467.8z"/>
<path d="M480,93.9h-1.3l-3.5-11.6h0.8l3.3,10.8l3.3-10.8h0.8L480,93.9z"/>
<path d="M485.1,82.3v11.6h-0.8V82.3H485.1z"/>
<path d="M490.8,93.9h-1.3L486,82.3h0.8l3.3,10.8l3.3-10.8h0.8L490.8,93.9z"/>
<path d="M501.7,87.7v0.8h-5.8v4.6h5.8v0.8h-6.6V82.3h6.6v0.8h-5.8v4.6H501.7z"/>
<path d="M503.4,90.6v-8.3h0.8v8.3H503.4z M503.4,93.9v-1.7h0.8v1.7H503.4z"/>
<polygon class="st4" points="696,0 627.5,250 599.6,250 668.1,0 "/>
</svg>
