<?xml version="1.0" encoding="utf-8"?>
<!-- Generator: Adobe Illustrator 21.0.0, SVG Export Plug-In . SVG Version: 6.00 Build 0)  -->
<svg version="1.1" id="Livello_1" xmlns="http://www.w3.org/2000/svg" xmlns:xlink="http://www.w3.org/1999/xlink" x="0px" y="0px"
	 viewBox="0 0 256 256" style="enable-background:new 0 0 256 256;" xml:space="preserve">
<style type="text/css">
	.st0{fill:none;}
	.st1{fill:#006B81;}
	.st2{fill:#3EBCA6;}
</style>
<g>
	<g>
		<path class="st0" d="M207.1,42.8H177l-39.6,144.8H190l30.1,30.1v-162c0-3.5-1.2-6.4-3.9-9.1C213.5,44,210.7,42.8,207.1,42.8z"/>
		<path class="st0" d="M207.1,42.8H177l-39.6,144.8H190l30.1,30.1v-162c0-3.5-1.2-6.4-3.9-9.1C213.5,44,210.7,42.8,207.1,42.8z"/>
		<path class="st1" d="M225.4,37.5c-5.1-5.1-11.2-7.7-18.2-7.7h-26.6l6.3-22.9h-13.5L114,223.8h13.5l6.4-23.2h50.7l48.5,48.5V55.7
			C233.1,48.7,230.5,42.6,225.4,37.5z"/>
		<path class="st2" d="M220.1,217.7L190,187.6h-52.6L177,42.8h30.2c3.5,0,6.4,1.2,9.1,3.9c2.6,2.6,3.9,5.5,3.9,9.1L220.1,217.7
			L220.1,217.7z"/>
	</g>
	<g>
		<path class="st0" d="M39.8,59.4c-2.6,2.6-3.9,5.5-3.9,9.1V187c0,3.6,1.3,6.6,4,9.4c2.6,2.7,5.5,4,9,4h28.6l39.6-144.8H48.9
			C45.3,55.5,42.5,56.7,39.8,59.4z"/>
		<path class="st0" d="M117.1,55.5H48.9c-3.5,0-6.4,1.2-9.1,3.9s-3.9,5.5-3.9,9.1V187c0,3.6,1.3,6.6,4,9.4c2.6,2.7,5.5,4,9,4h28.6
			L117.1,55.5z"/>
		<path class="st1" d="M140.4,19.6h-13.5l-6.3,22.9H48.9c-7,0-13.1,2.6-18.2,7.7S23,61.4,23,68.4v118.5c0,7,2.6,13.1,7.6,18.4
			c5.1,5.3,11.3,8,18.3,8h25l-6.4,23.2H81L140.4,19.6z"/>
		<path class="st2" d="M48.9,200.3c-3.5,0-6.3-1.3-9-4c-2.7-2.8-4-5.8-4-9.4V68.4c0-3.5,1.2-6.4,3.9-9.1s5.5-3.9,9.1-3.9h68.2
			L77.5,200.3H48.9z"/>
	</g>
</g>
</svg>
